:SAMPLES-PER-SECOND 30
:FULLY-SPECIFIED
:DEGREES
297
root  -22.1375 34.757 1.52916 174.454 -83.7924 -169.818
RightUpLeg  -46.0442 -17.3299 4.19986
RightLeg  59.2427 -4.74223 -9.05233
RightFoot  -17.821 -0.0952187 0.447052
RightToes  0.000482159 0.542163 -0.142577
Spine  35.6687 -4.38267 12.1532
Spine1  12.1765 -2.82619 5.37296
HEad  30.743 -4.65768 2.71605
LeftShoulder1  6.79756 -13.7971 -33.2458
LeftArm  -26.7007 -20.264 -22.6382
LeftForeArm  39.4771 -36.2013 -5.85944
LeftHand  -0.25398 0.0180481 5.50724
RightShoulder  2.14384 5.62978 16.8345
RightArm  -31.2012 40.3807 20.7283
RightForeArm  0.861465 2.92328 2.80974
RightHand  -5.11033 14.7667 -29.2621
LeftUpLeg  -44.4466 12.3501 1.05024
LeftLeg  63.6654 3.36951 8.03954
LeftFoot  -19.142 -0.245847 -5.28195
LeftToes  1.06244e-005 4.65856e-005 -8.18505e-006
298
root  -21.8598 34.2384 1.53832 167.654 -83.9623 -162.715
RightUpLeg  -48.1804 -16.9371 5.14286
RightLeg  61.6144 -4.67039 -9.8511
RightFoot  -18.4877 -0.0706418 0.871781
RightToes  0.000482159 0.542163 -0.142577
Spine  37.6564 -4.67672 12.481
Spine1  11.4607 -2.92624 5.77719
HEad  30.3648 -4.81217 3.27667
LeftShoulder1  6.33532 -13.5254 -31.1576
LeftArm  -31.2875 -24.656 -19.4663
LeftForeArm  39.4693 -37.2842 -6.14405
LeftHand  -0.25398 0.0180481 5.50724
RightShoulder  1.71546 4.60397 14.2972
RightArm  -35.5878 43.4503 16.1318
RightForeArm  -1.37675 3.98203 2.60452
RightHand  -5.66905 15.9024 -30.641
LeftUpLeg  -46.8979 11.9342 1.49782
LeftLeg  66.3306 3.44944 9.30162
LeftFoot  -19.8729 -0.294012 -5.53293
LeftToes  1.06244e-005 4.65856e-005 -8.18505e-006
299
root  -21.6 33.7055 1.56589 162.462 -83.8744 -157.398
RightUpLeg  -50.1619 -16.3704 5.84066
RightLeg  64.0321 -4.51523 -10.6298
RightFoot  -19.1675 -0.0441481 1.25206
RightToes  0.000482159 0.542163 -0.142577
Spine  39.5177 -4.83519 12.6032
Spine1  11.0693 -2.89308 5.98855
HEad  30.25 -5.01069 3.7504
LeftShoulder1  5.84475 -13.2554 -28.7953
LeftArm  -36.0198 -29.1219 -15.8905
LeftForeArm  39.3662 -37.8 -6.28863
LeftHand  -0.25398 0.0180481 5.50724
RightShoulder  1.2672 3.37118 11.2731
RightArm  -40.3246 46.1549 11.8438
RightForeArm  -3.41481 4.59579 2.2574
RightHand  -6.17463 16.9266 -31.7598
LeftUpLeg  -48.8001 11.3525 1.99703
LeftLeg  68.7352 3.28324 10.0815
LeftFoot  -21.0696 -0.366652 -5.79086
LeftToes  1.06244e-005 4.65856e-005 -8.18505e-006
300
root  -21.3661 33.1631 1.60897 158.968 -83.5253 -153.801
RightUpLeg  -52.1249 -15.5266 6.4199
RightLeg  66.4442 -4.32398 -11.4631
RightFoot  -19.7701 -0.0228616 1.50692
RightToes  0.000482159 0.542163 -0.142577
Spine  41.3022 -4.83779 12.5115
Spine1  10.691 -2.72105 6.10926
HEad  30.5736 -5.24248 3.98009
LeftShoulder1  5.35097 -12.9086 -26.4575
LeftArm  -40.5768 -33.2457 -12.1496
LeftForeArm  39.4637 -37.9868 -6.33384
LeftHand  -0.25398 0.0180481 5.50724
RightShoulder  0.851803 2.00413 7.97296
RightArm  -44.8942 48.3485 8.28018
RightForeArm  -5.58518 5.20437 1.90859
RightHand  -6.60822 17.6682 -32.8156
LeftUpLeg  -50.4121 10.7133 2.49715
LeftLeg  70.9492 3.21347 11.2292
LeftFoot  -22.9196 -0.453442 -5.8257
LeftToes  1.06244e-005 4.65856e-005 -8.18505e-006
301
root  -21.1571 32.5902 1.65598 157.259 -83.1237 -152.035
RightUpLeg  -54.1346 -14.5796 6.81129
RightLeg  68.9922 -4.04921 -12.3343
RightFoot  -20.3248 -0.00557677 1.68082
RightToes  0.000482159 0.542163 -0.142577
Spine  43.1242 -4.76651 12.1543
Spine1  9.97145 -2.53341 6.16378
HEad  31.2342 -5.34757 4.0291
LeftShoulder1  4.8816 -12.4662 -24.3375
LeftArm  -44.7057 -36.8471 -8.42392
LeftForeArm  39.6247 -38.1461 -6.36801
LeftHand  -0.25398 0.0180481 5.50724
RightShoulder  0.550333 0.761831 5.11633
RightArm  -48.9561 50.1294 5.13817
RightForeArm  -7.52419 6.17791 1.72823
RightHand  -6.92974 18.0755 -33.7446
LeftUpLeg  -52.1704 9.99016 2.85388
LeftLeg  73.4239 3.11307 12.7938
LeftFoot  -24.3934 -0.534566 -5.94782
LeftToes  1.06244e-005 4.65856e-005 -8.18505e-006
302
root  -20.9845 31.9483 1.69515 157.501 -82.708 -152.55
RightUpLeg  -55.9873 -13.6948 6.89535
RightLeg  71.9068 -3.58799 -13.1332
RightFoot  -21.0351 0.0138451 1.84242
RightToes  0.000482159 0.542163 -0.142577
Spine  44.9691 -4.62564 11.5008
Spine1  9.15569 -2.38292 6.08941
HEad  31.8886 -5.12403 4.06462
LeftShoulder1  4.46935 -12.0272 -22.4539
LeftArm  -48.5236 -40.1101 -4.83946
LeftForeArm  39.9615 -38.2766 -6.38422
LeftHand  -0.25398 0.0180481 5.50724
RightShoulder  0.37147 -0.171794 3.13047
RightArm  -52.6046 51.6514 1.96071
RightForeArm  -8.42828 7.45903 1.70651
RightHand  -7.01543 18.1313 -34.0552
LeftUpLeg  -53.8912 9.24852 3.08788
LeftLeg  76.353 2.72361 14.2027
LeftFoot  -25.0568 -0.619395 -6.39653
LeftToes  1.06244e-005 4.65856e-005 -8.18505e-006
303
root  -20.8725 31.2156 1.72352 158.795 -82.0184 -154.721
RightUpLeg  -57.3737 -12.7387 6.79097
RightLeg  75.2506 -2.91677 -13.8239
RightFoot  -22.0193 0.03313 1.95076
RightToes  0.000482159 0.542163 -0.142577
Spine  46.6841 -4.3709 10.7515
Spine1  8.81853 -2.16259 5.80792
HEad  32.4526 -4.52025 4.02644
LeftShoulder1  4.13299 -11.718 -20.7284
LeftArm  -52.1336 -43.2468 -1.61874
LeftForeArm  40.8097 -38.0837 -6.28348
LeftHand  -0.25398 0.0180481 5.50724
RightShoulder  0.261563 -0.855435 1.6733
RightArm  -55.9833 53.0514 -0.990021
RightForeArm  -7.94132 8.76253 1.68421
RightHand  -6.87161 17.9248 -33.6812
LeftUpLeg  -55.0615 8.918 3.40466
LeftLeg  79.681 2.04193 15.3919
LeftFoot  -25.6965 -0.731427 -7.0243
LeftToes  1.06244e-005 4.65856e-005 -8.18505e-006
304
root  -20.8327 30.4194 1.74352 159.449 -81.0577 -156.719
RightUpLeg  -58.3009 -11.6832 6.72937
RightLeg  78.8137 -2.10964 -14.456
RightFoot  -23.1093 0.0380335 1.88973
RightToes  0.000482159 0.542163 -0.142577
Spine  48.0043 -4.1457 10.2475
Spine1  9.21894 -1.8638 5.29401
HEad  33.1369 -3.61185 3.68639
LeftShoulder1  3.8665 -11.566 -19.1283
LeftArm  -55.206 -46.1862 0.888978
LeftForeArm  41.8306 -37.4018 -6.0434
LeftHand  -0.25398 0.0180481 5.50724
RightShoulder  0.178521 -1.42474 0.194456
RightArm  -59.0105 54.5914 -3.2214
RightForeArm  -6.76405 9.80524 1.60001
RightHand  -6.76674 17.7975 -33.3742
LeftUpLeg  -55.6991 9.24521 3.85066
LeftLeg  83.2872 1.13279 16.4318
LeftFoot  -26.812 -0.873342 -7.60583
LeftToes  1.06244e-005 4.65856e-005 -8.18505e-006
